<svg xmlns="http://www.w3.org/2000/svg" width="330" height="74" viewBox="0 0 330 74">
  <defs>
    <style>
      .cls-1 {
        fill: #fff;
        fill-rule: evenodd;
      }
    </style>
  </defs>
  <path id="Logo" class="cls-1" d="M18.135,49.678A15.7,15.7,0,0,0,23.991,48.5a13.081,13.081,0,0,0,5.16-4.032,18.587,18.587,0,0,0,3.1-5.928,19.141,19.141,0,0,0,.84-6.672,15.318,15.318,0,0,0-1.608-6.264,9.672,9.672,0,0,0-5.4-4.944,11.779,11.779,0,0,0-7.416.1l0.576-.576a4.975,4.975,0,0,1,.624-0.528,29.267,29.267,0,0,0,4.992-5.424,10.518,10.518,0,0,0,1.824-4.224,4.749,4.749,0,0,0-.168-2.112,4.014,4.014,0,0,0-.96-1.56,4.444,4.444,0,0,0-1.608-1.008,5.833,5.833,0,0,0-2.064-.36,10.273,10.273,0,0,0-3.144.552,13.185,13.185,0,0,0-3.384,1.7,8.945,8.945,0,0,0-.24-2.592A4.832,4.832,0,0,0,14.3,2.9a3.562,3.562,0,0,0-1.2-1.008,4.42,4.42,0,0,0-1.344-.432,4.7,4.7,0,0,0-1.272-.024,3.2,3.2,0,0,0-1.488.576A4.086,4.086,0,0,0,7.7,3.622,8.26,8.26,0,0,0,7,6.646Q6.423,15.623,6.159,24.5T6.327,42.454Q5.463,41.927,4.6,41.278L2.775,39.91A1.365,1.365,0,0,0,1.6,39.622a1.684,1.684,0,0,0-.96.6A1.549,1.549,0,0,0,.3,41.278,1.334,1.334,0,0,0,.9,42.31Q2.39,43.462,3.783,44.4t2.736,1.7q0.047,0.673.072,1.344a12.49,12.49,0,0,0,.12,1.344A2,2,0,0,0,7.5,50.278a2.024,2.024,0,0,0,1.416.336,2.419,2.419,0,0,0,1.392-.7,2.255,2.255,0,0,0,.624-1.7A18.806,18.806,0,0,0,18.135,49.678Zm-1.1-24.888a6.612,6.612,0,0,1,4.08-.552A5.191,5.191,0,0,1,24.3,26.614a13.23,13.23,0,0,1,1.7,6,17.764,17.764,0,0,1-.48,5.784,11.344,11.344,0,0,1-2.52,4.92,8.649,8.649,0,0,1-4.728,2.664,12.433,12.433,0,0,1-7.152-1.032q0.335-4.511.72-8.784t0.864-8.592A17.058,17.058,0,0,1,17.031,24.79ZM16.887,9.814a10.207,10.207,0,0,1,2.3-1.248,2.933,2.933,0,0,1,2.016-.312,0.9,0.9,0,0,1,.312,1.152,9.112,9.112,0,0,1-1.008,2.256q-0.792,1.368-1.92,3t-2.5,3.36q-1.368,1.728-2.664,3.312,0.288-2.351.6-4.68t0.7-4.776A10.9,10.9,0,0,1,16.887,9.814ZM57.639,33.862a21.891,21.891,0,0,1-3.7,3.6,17.832,17.832,0,0,1-4.224,2.448,5.9,5.9,0,0,1-3.84.384,4.136,4.136,0,0,1-2.592-2.544q-0.912-2.063-.432-6.384A5.246,5.246,0,0,0,46,31.894a7.2,7.2,0,0,0,2.856-1.08,7.744,7.744,0,0,0,2.208-2.184,7.949,7.949,0,0,0,1.224-2.784,5.422,5.422,0,0,0-.144-2.856,4.807,4.807,0,0,0-1.848-2.424,6.369,6.369,0,0,0-4.536-1.224,8.265,8.265,0,0,0-4.488,1.944,10.742,10.742,0,0,0-2.76,3.864,16.959,16.959,0,0,0-1.368,5.16,16.715,16.715,0,0,0,.312,5.424,10.339,10.339,0,0,0,2.328,4.656,8.73,8.73,0,0,0,2.856,2.136,9.33,9.33,0,0,0,3.48.84,11.7,11.7,0,0,0,5.016-.96,20.043,20.043,0,0,0,4.752-2.832,24.978,24.978,0,0,0,4.008-4.008,19.169,19.169,0,0,0,2.736-4.536,1.111,1.111,0,0,0-.072-1.08,1.841,1.841,0,0,0-.84-0.672,1.669,1.669,0,0,0-1.08-.072,1.037,1.037,0,0,0-.744.768A12.688,12.688,0,0,1,57.639,33.862ZM44.2,26.782a14.259,14.259,0,0,1,1.488-2.472,8.247,8.247,0,0,1,1.776-1.8,1.246,1.246,0,0,1,1.632-.072,2.356,2.356,0,0,1,.792,1.392,4.063,4.063,0,0,1-.072,1.8,5.588,5.588,0,0,1-.84,1.8,4.97,4.97,0,0,1-1.44,1.392,3.978,3.978,0,0,1-1.872.6,3.8,3.8,0,0,1-2.184-.6A7.647,7.647,0,0,1,44.2,26.782ZM68.942,45.574a12.765,12.765,0,0,1,.048,2.712,8.862,8.862,0,0,1-.624,2.64,3.133,3.133,0,0,1-1.464,1.7,1.64,1.64,0,0,1-1.344.168,1.662,1.662,0,0,1-.96-0.96,4.258,4.258,0,0,1-.288-1.92,8.089,8.089,0,0,1,.72-2.76,8.651,8.651,0,0,1,3.312-3.6A5.3,5.3,0,0,1,68.942,45.574ZM64.5,25.75a8.54,8.54,0,0,1,.528-3.456,4.737,4.737,0,0,1,1.584-2.112,3.8,3.8,0,0,1,2.04-.768,3.286,3.286,0,0,1,1.944.528,3.044,3.044,0,0,1,1.272,1.8,7.147,7.147,0,0,1,.048,3.12,13.508,13.508,0,0,1-1.752,4.392,0.83,0.83,0,0,0,0,.936,1.653,1.653,0,0,0,.816.6,1.98,1.98,0,0,0,1.1.072,1.228,1.228,0,0,0,.864-0.648,15.01,15.01,0,0,0,1.968-4.68,9.584,9.584,0,0,0,.1-3.792,5.871,5.871,0,0,0-1.368-2.808,7.376,7.376,0,0,0-2.448-1.8,8.556,8.556,0,0,0-3.1-.744,9.711,9.711,0,0,0-3.312.384,10.13,10.13,0,0,0-3.48,1.776,8,8,0,0,0-2.448,3.168,10.232,10.232,0,0,0-.744,4.512A15.08,15.08,0,0,0,59.7,31.99a16.22,16.22,0,0,0,1.512,2.592q0.888,1.249,1.872,2.424t1.968,2.28q0.983,1.1,1.8,2.16a25.48,25.48,0,0,0-2.52,1.968,7.08,7.08,0,0,0-1.7,2.208,8.561,8.561,0,0,0-.96,3.864,7.156,7.156,0,0,0,.816,3.456,5.346,5.346,0,0,0,2.448,2.3,6.232,6.232,0,0,0,3.936.36,4.9,4.9,0,0,0,3.216-1.992,8.846,8.846,0,0,0,1.512-3.72,12.044,12.044,0,0,0-.072-4.344,10.316,10.316,0,0,0-1.536-3.864q1.728-.767,3.12-1.344t2.52-1.152a22.261,22.261,0,0,0,2.112-1.224,13.255,13.255,0,0,0,1.944-1.584,20.675,20.675,0,0,0,1.968-2.256q1.008-1.32,2.208-3.24a0.786,0.786,0,0,0,.048-0.936,1.666,1.666,0,0,0-.816-0.6,2.232,2.232,0,0,0-1.128-.1,1.314,1.314,0,0,0-.936.624A27.931,27.931,0,0,1,80.2,33.886a14.21,14.21,0,0,1-2.688,2.4,16.686,16.686,0,0,1-3.048,1.608q-1.656.673-3.864,1.584-1.249-1.968-2.712-4.3a25.583,25.583,0,0,1-2.328-4.632A15.194,15.194,0,0,1,64.5,25.75ZM92.342,4.7a4.75,4.75,0,0,0-.576-1.848,2.5,2.5,0,0,0-1.128-1.032,3.659,3.659,0,0,0-1.512-.312,4.911,4.911,0,0,0-2.688.744,5.041,5.041,0,0,0-1.584,1.752,7.879,7.879,0,0,0-.816,2.328Q83.8,7.606,83.654,8.758q-0.1.817-.168,1.656t-0.168,1.752q-3.359-.1-6.288-0.192t-4.9-.048a1.745,1.745,0,0,0-1.032.528,1.326,1.326,0,0,0-.36,1.056,1.488,1.488,0,0,0,.5,1.032,1.394,1.394,0,0,0,1.08.36q2.16-.144,4.9-0.1T83.03,14.95q-0.191,2.257-.336,4.608t-0.24,4.56q-0.1,2.208-.144,4.152T82.262,31.7q0,0.72-.024,2.544t0.024,4.176q0.048,2.352.216,4.992a47.725,47.725,0,0,0,.576,5.016,22.457,22.457,0,0,0,1.1,4.2,5.459,5.459,0,0,0,1.776,2.592,2.667,2.667,0,0,0,2.616.192A10.292,10.292,0,0,0,92.2,52.39a44.042,44.042,0,0,0,4.08-5.688q2.016-3.287,3.7-6.552,1.584-3.024,2.808-5.52t1.8-3.6A1.038,1.038,0,0,0,104.606,30a1.465,1.465,0,0,0-.792-0.648,2,2,0,0,0-1.1-.072,1.356,1.356,0,0,0-.912.7q-0.242.48-.672,1.368t-1.008,2.064q-0.576,1.177-1.248,2.544t-1.392,2.856q-0.72,1.488-1.536,3t-1.608,2.9q-0.792,1.393-1.608,2.64T91.19,49.51a10.56,10.56,0,0,1-1.128,1.32,3.824,3.824,0,0,1-1.176.864,0.671,0.671,0,0,1-.864-0.216,3.188,3.188,0,0,1-.192-1.968q0.191-3.5.5-7.752t0.744-8.784q0.432-4.536.936-9.12t1.032-8.712q2.88,0,5.52-.168a30.741,30.741,0,0,0,4.776-.648,11.652,11.652,0,0,0,3.576-1.368,4.323,4.323,0,0,0,1.92-2.28,1.319,1.319,0,0,0-.048-1.152A1.6,1.6,0,0,0,104.7,8.9a1.462,1.462,0,0,0-.744.864,2.281,2.281,0,0,1-1.32,1.224,11.03,11.03,0,0,1-2.784.792,34.918,34.918,0,0,1-3.864.408q-2.16.12-4.56,0.12,0.191-1.3.384-2.52T92.2,7.462A9.392,9.392,0,0,0,92.342,4.7Zm23.135,22.536a53.051,53.051,0,0,1-2.4-6.36,30.709,30.709,0,0,1-1.272-6.48,10.847,10.847,0,0,1,.936-5.688,6.671,6.671,0,0,1,2.52-2.9,5.4,5.4,0,0,1,3.144-.84,5.194,5.194,0,0,1,2.832.744,3.442,3.442,0,0,1,1.368,1.824,5.9,5.9,0,0,1,.192,2.52,13.924,13.924,0,0,1-.648,2.808A19.423,19.423,0,0,1,121,15.574a16.658,16.658,0,0,1-1.344,2.208,1.091,1.091,0,0,0-.192,1.272,1.979,1.979,0,0,0,1.1.816,3.183,3.183,0,0,0,1.656.1,2.2,2.2,0,0,0,1.416-.888,23.6,23.6,0,0,0,1.968-3.72,17.029,17.029,0,0,0,1.128-3.864,12.266,12.266,0,0,0,.048-3.744,8.012,8.012,0,0,0-1.224-3.288,8.274,8.274,0,0,0-2.712-2.52,12.387,12.387,0,0,0-4.44-1.488,17.3,17.3,0,0,0-3.768-.168,15.683,15.683,0,0,0-3.768.7,16.025,16.025,0,0,0-3.456,1.56,11.159,11.159,0,0,0-2.832,2.424,10.736,10.736,0,0,0-2.448,4.968,14.422,14.422,0,0,0,.024,5.3,21.848,21.848,0,0,0,1.8,5.4,51.72,51.72,0,0,0,2.88,5.232q1.584,2.52,3.24,4.8t2.9,4.152a32.352,32.352,0,0,0-2.736,1.9q-1.2.936-2.16,1.848a10.74,10.74,0,0,0-3.024,4.44,5.183,5.183,0,0,0,.12,3.6,5.771,5.771,0,0,0,2.328,2.568,10,10,0,0,0,3.648,1.344,10.649,10.649,0,0,0,3.024.048,8.6,8.6,0,0,0,2.856-.864,7.564,7.564,0,0,0,2.328-1.848,6.78,6.78,0,0,0,1.416-2.952,11.665,11.665,0,0,0,.1-4.128,20.945,20.945,0,0,0-1.608-5.376,4.408,4.408,0,0,1,2.952-.264,3.48,3.48,0,0,1,1.68,1.272,6.2,6.2,0,0,1,.888,1.92,8.129,8.129,0,0,0,.624,1.68,1.909,1.909,0,0,0,1.056.912,1.713,1.713,0,0,0,1.2-.048,1.874,1.874,0,0,0,.912-0.816,1.739,1.739,0,0,0,.144-1.344,14.626,14.626,0,0,0-.864-2.424,7.5,7.5,0,0,0-1.872-2.544,7.274,7.274,0,0,0-3.216-1.608,9.148,9.148,0,0,0-4.848.432Q116.869,30.311,115.477,27.238Zm0.84,15a5.684,5.684,0,0,1-.408,3.024,3.568,3.568,0,0,1-1.656,1.7,4.6,4.6,0,0,1-4.2-.048,2.671,2.671,0,0,1-1.272-1.32,2.959,2.959,0,0,1,0-2.04,6.594,6.594,0,0,1,1.848-2.64,17.883,17.883,0,0,1,1.752-1.512,23.671,23.671,0,0,1,2.424-1.608A12.542,12.542,0,0,1,116.317,42.238Zm34.3,8.04a32.417,32.417,0,0,1,.24-3.6q0.24-2.112.6-4.56t0.7-4.656q0.335-2.207.576-3.936a13.445,13.445,0,0,0,.192-2.352,25.351,25.351,0,0,0-.312-2.568,7.639,7.639,0,0,0-.744-2.232,5.737,5.737,0,0,0-1.872-2.112,5.457,5.457,0,0,0-2.448-.912,5.212,5.212,0,0,0-2.616.408,5.648,5.648,0,0,0-2.328,1.9,17.575,17.575,0,0,0-2.256,3.912q-1.008,2.329-1.824,4.872,0.335-3.456.768-6.48t0.912-6.072q0.478-3.048,1.056-6.36T142.5,8.182a9.908,9.908,0,0,0,.072-3.12,5.276,5.276,0,0,0-.744-2.04,3.323,3.323,0,0,0-1.32-1.176,6.22,6.22,0,0,0-1.56-.528,9.461,9.461,0,0,0-1.344,0A3.481,3.481,0,0,0,136,1.846,4.113,4.113,0,0,0,134.6,3.382a7.076,7.076,0,0,0-.744,2.928q-0.817,10.224-1.176,20.28a186.167,186.167,0,0,0,.408,20.424,1.878,1.878,0,0,0,.864,1.44,2.429,2.429,0,0,0,2.952-.288,2.212,2.212,0,0,0,.7-1.632q0.1-.672.408-2.064t0.792-3.12q0.478-1.728,1.08-3.648t1.224-3.672q0.622-1.752,1.248-3.144a9.355,9.355,0,0,1,1.2-2.088,0.968,0.968,0,0,1,1.056-.5,2.154,2.154,0,0,1,.768,1.584,14.078,14.078,0,0,1,.168,2.28q0.024,1.56.024,3.552t0.048,4.32q0.046,2.329.192,4.584t0.48,4.344a17.653,17.653,0,0,0,.936,3.624,6.12,6.12,0,0,0,1.536,2.376,2.684,2.684,0,0,0,2.28.648A5.451,5.451,0,0,0,153.9,53.83a28.207,28.207,0,0,0,3.168-3.96q1.608-2.376,3.168-5.208t2.928-5.5q1.368-2.664,2.424-4.848t1.632-3.24a1.038,1.038,0,0,0,.024-1.032,1.458,1.458,0,0,0-.792-0.648,2,2,0,0,0-1.1-.072,1.356,1.356,0,0,0-.912.7q-0.144.288-.7,1.464t-1.416,2.88q-0.864,1.7-1.9,3.816t-2.16,4.2q-1.128,2.088-2.256,4.008T153.9,49.7a12.079,12.079,0,0,1-1.752,2.064q-0.768.672-1.2,0.288A2.755,2.755,0,0,1,150.613,50.278Zm13.223-13.2a9,9,0,0,0,1.08,2.3,8.375,8.375,0,0,0,1.512,1.728,9.449,9.449,0,0,0,1.752,1.2,7.391,7.391,0,0,0,2.76.864,8.534,8.534,0,0,0,2.784-.168,10.079,10.079,0,0,0,2.664-1.032,14.142,14.142,0,0,0,2.448-1.728,7.857,7.857,0,0,0,3.1.84,9.053,9.053,0,0,0,3.384-.408,12.013,12.013,0,0,0,3.816-2.016,16.09,16.09,0,0,0,3.192-3.312q0.672-.96,1.344-2.016t1.344-2.3A1.036,1.036,0,0,0,195.036,30a1.458,1.458,0,0,0-.792-0.648,2.07,2.07,0,0,0-1.128-.072,1.224,1.224,0,0,0-.888.7q-0.576,1.056-1.056,1.968t-0.96,1.728a11.386,11.386,0,0,1-2.448,2.832,9.433,9.433,0,0,1-3.072,1.776,5.572,5.572,0,0,1-3.936-.1,16.846,16.846,0,0,0,2.016-3.456,4.726,4.726,0,0,0,.408-2.952A3.609,3.609,0,0,0,182,29.83a3.893,3.893,0,0,0-2.088-.864,4.765,4.765,0,0,0-2.328.288,4.489,4.489,0,0,0-1.92,1.488,4.651,4.651,0,0,0-.864,2.784,7.414,7.414,0,0,0,.456,2.928,6.829,6.829,0,0,0,1.416,2.256,8.824,8.824,0,0,1-2.184,1.44,3.9,3.9,0,0,1-1.992.384A2.464,2.464,0,0,1,170.46,39a7.374,7.374,0,0,1-.552-3.216,14.923,14.923,0,0,1,.7-3.984,19.356,19.356,0,0,1,1.656-3.888,10.752,10.752,0,0,1,2.328-2.9,3.614,3.614,0,0,1,2.76-.984,1.624,1.624,0,0,1,.96.384,2.3,2.3,0,0,1,.6.84,5.575,5.575,0,0,1,.336,1.1,10.268,10.268,0,0,1,.168,1.224,0.808,0.808,0,0,0,.624.72,1.918,1.918,0,0,0,1.2,0,1.614,1.614,0,0,0,.96-0.792,1.946,1.946,0,0,0-.144-1.7,6.655,6.655,0,0,0-2.568-3.1,7.767,7.767,0,0,0-3.768-1.2,10.856,10.856,0,0,0-4.248.648,11.775,11.775,0,0,0-3.96,2.352,12.445,12.445,0,0,0-2.928,4.008,12.886,12.886,0,0,0-1.152,5.592A9.944,9.944,0,0,0,163.836,37.078Zm14.352-5.52a1.634,1.634,0,0,1,1.344-.456,1.245,1.245,0,0,1,.936.888,2.72,2.72,0,0,1-.336,2.064,15.3,15.3,0,0,1-.816,1.44q-0.432.673-.864,1.3a3.791,3.791,0,0,1-1.1-3.216A2.891,2.891,0,0,1,178.188,31.558Zm21.288-8.736a2.474,2.474,0,0,0-2.4-1.488,8.376,8.376,0,0,0-1.584.168,4.119,4.119,0,0,0-1.608.7,4.51,4.51,0,0,0-1.3,1.512,5.984,5.984,0,0,0-.648,2.568q-0.24,3.7-.336,7.992t-0.144,8.712q-0.048,4.417-.1,8.664t-0.192,7.848a24.1,24.1,0,0,0-3.216.12,18.762,18.762,0,0,0-3.168.6A8.888,8.888,0,0,0,181,62.254a6.294,6.294,0,0,0-1.752,2.808,5.143,5.143,0,0,0,.1,3.024,6.284,6.284,0,0,0,1.752,2.688,8.425,8.425,0,0,0,3.192,1.776,10.7,10.7,0,0,0,4.488.336,9.916,9.916,0,0,0,4.032-1.224,7.367,7.367,0,0,0,2.424-2.328,10.567,10.567,0,0,0,1.32-3.072q0.432-1.681.72-3.408,1.2,0.335,2.256.72a10.638,10.638,0,0,1,1.92.912,1.453,1.453,0,0,0,1.2.216,1.879,1.879,0,0,0,.912-0.552,1.141,1.141,0,0,0,.288-0.888,1.222,1.222,0,0,0-.672-0.888A20.769,20.769,0,0,0,197.6,60.31q0.334-2.833.6-6.576t0.5-7.728a2.3,2.3,0,0,0,1.056.72,5.136,5.136,0,0,0,1.416.288,7.943,7.943,0,0,0,1.512-.048,8.164,8.164,0,0,0,1.392-.288,14.527,14.527,0,0,0,4.536-2.064,15.424,15.424,0,0,0,3.912-3.792q1.918-.479,3.48-0.984a11.269,11.269,0,0,0,3-1.512,16.058,16.058,0,0,0,2.9-2.712,31.528,31.528,0,0,0,3.144-4.584A0.939,0.939,0,0,0,225.108,30a1.581,1.581,0,0,0-.792-0.648,1.974,1.974,0,0,0-1.1-.072,1.361,1.361,0,0,0-.936.7q-1.152,1.92-2.112,3.216a16.68,16.68,0,0,1-1.872,2.16,9.472,9.472,0,0,1-1.848,1.392,12.433,12.433,0,0,1-2.04.912,0.043,0.043,0,0,0,.048-0.048,12.387,12.387,0,0,0,1.1-4.56,10.062,10.062,0,0,0-.648-4.176,7.131,7.131,0,0,0-2.3-3.072,6.232,6.232,0,0,0-3.912-1.2,6.44,6.44,0,0,0-2.736.6,9.606,9.606,0,0,0-2.448,1.656,16.776,16.776,0,0,0-2.16,2.424,31.4,31.4,0,0,0-1.872,2.856q0.1-1.248.168-2.28t0.168-1.8Q200.2,24.31,199.476,22.822ZM202,41.59a17.1,17.1,0,0,0-1.9,1.1,4.988,4.988,0,0,0-1.248,1.2l0.24-4.656q0.432-1.008,1.272-2.856a40.6,40.6,0,0,1,1.92-3.7,17.679,17.679,0,0,1,2.424-3.264,4.518,4.518,0,0,1,2.784-1.56,2.056,2.056,0,0,1,1.776.576,3.643,3.643,0,0,1,.84,1.872,9.929,9.929,0,0,1,.048,2.784,19.488,19.488,0,0,1-.648,3.264,15.022,15.022,0,0,1-1.344,3.072q-0.768.241-1.608,0.48t-1.8.576A19,19,0,0,0,202,41.59Zm-16.08,28.656a4.1,4.1,0,0,1-2.04-.7,3.951,3.951,0,0,1-1.32-1.536,3.486,3.486,0,0,1-.336-1.968A3.384,3.384,0,0,1,183.2,64.1a5.859,5.859,0,0,1,2.592-1.44,14.794,14.794,0,0,1,2.64-.528,18.847,18.847,0,0,1,2.688-.1,15.7,15.7,0,0,1-.792,5.016,4.89,4.89,0,0,1-1.992,2.568A4.143,4.143,0,0,1,185.916,70.246Zm19.848-27.5a7.418,7.418,0,0,1-2.592,1.872,5.439,5.439,0,0,1-.888.24,2.237,2.237,0,0,1-.768.048q-0.264-.047-0.048-0.288a4.821,4.821,0,0,1,1.272-.72,7.05,7.05,0,0,1,1.032-.456q0.6-.216,1.368-0.5ZM246.228,5.3a1.42,1.42,0,0,0,.984-0.744,1.686,1.686,0,0,0,.144-1.1,1.631,1.631,0,0,0-.6-0.936,1.292,1.292,0,0,0-1.2-.192,20.642,20.642,0,0,1-3.024.48Q240.9,2.95,239.076,3h-1.92q-0.962,0-1.968-.1a3.385,3.385,0,0,0-1.32-1.392A4.438,4.438,0,0,0,232.26.982a4.705,4.705,0,0,0-1.272-.024,3.2,3.2,0,0,0-1.488.576,4.077,4.077,0,0,0-1.3,1.608,8.245,8.245,0,0,0-.7,3.024q-0.674,10.512-.816,20.736t0.336,21.024a1.859,1.859,0,0,0,.72,1.44,2.922,2.922,0,0,0,1.488.624,3.13,3.13,0,0,0,1.608-.24,2.049,2.049,0,0,0,1.128-1.152q3.168,0.288,6.264.264a31.269,31.269,0,0,0,6.408-.744,1.522,1.522,0,0,0,.96-0.648,1.641,1.641,0,0,0,.24-1.176,1.574,1.574,0,0,0-.672-0.936,1.4,1.4,0,0,0-1.152-.216,29.436,29.436,0,0,1-5.952.7,56.565,56.565,0,0,1-5.856-.264q0.288-4.752.6-9.24t0.7-9h4.776q1.846,0,3.384-.1a1.4,1.4,0,0,0,1.056-.456,1.517,1.517,0,0,0,.432-1.08,1.632,1.632,0,0,0-.5-1.1,1.359,1.359,0,0,0-1.08-.384q-1.538.048-3.384,0.072t-4.008.024H233.8q0.382-3.984.84-8.016t1.08-8.256a16.812,16.812,0,0,0,.144-2.064c0.543,0.032,1.08.048,1.608,0.048h1.608a41.12,41.12,0,0,0,7.152-.72h0Zm9.191,14.9a3.977,3.977,0,0,0-1.656-.84,5.084,5.084,0,0,0-1.968-.1,5.228,5.228,0,0,0-1.824.6,3.175,3.175,0,0,0-1.248,1.224,2.488,2.488,0,0,0-.192,1.824q0.386,1.344.864,3.7t1.1,5.136q0.624,2.784,1.416,5.688a34.892,34.892,0,0,0,1.848,5.232,14.718,14.718,0,0,0,2.4,3.816,3.843,3.843,0,0,0,3.024,1.44,3.415,3.415,0,0,0,2.352-1.1,14.089,14.089,0,0,0,2.16-2.712,30.988,30.988,0,0,0,1.872-3.48q0.864-1.872,1.536-3.456a6.693,6.693,0,0,0,3.912,1.1,6.865,6.865,0,0,0,3.312-1.152,11.394,11.394,0,0,0,2.76-2.664,31.655,31.655,0,0,0,2.256-3.432A0.937,0.937,0,0,0,279.4,30a1.581,1.581,0,0,0-.792-0.648,1.974,1.974,0,0,0-1.1-.072,1.224,1.224,0,0,0-.888.7q-0.624,1.056-1.464,2.328a9.648,9.648,0,0,1-1.92,2.16,4.791,4.791,0,0,1-2.376,1.08,3.771,3.771,0,0,1-2.784-.912q0.384-1.152.96-2.976t1.008-3.744a24.309,24.309,0,0,0,.552-3.7,6.23,6.23,0,0,0-.36-2.88,2.741,2.741,0,0,0-.984-1.3,1.82,1.82,0,0,0-1.272-.288,3.215,3.215,0,0,0-1.344.552,5.738,5.738,0,0,0-1.248,1.176,12.678,12.678,0,0,0-2.064,3.792,10.972,10.972,0,0,0-.576,3.7,10.811,10.811,0,0,0,.6,3.336,10.1,10.1,0,0,0,1.416,2.712,12.14,12.14,0,0,1-.456,1.3q-0.36.912-.84,2.088T262.4,40.822q-0.576,1.249-1.128,2.232a6.972,6.972,0,0,1-1.08,1.512,0.756,0.756,0,0,1-.864.336,3.918,3.918,0,0,1-1.44-2.208,23.018,23.018,0,0,1-.84-3.864,47.49,47.49,0,0,1-.408-4.776q-0.1-2.544-.12-4.92t-0.072-4.344a27.522,27.522,0,0,0-.192-2.976A2.511,2.511,0,0,0,255.419,20.206Zm10.512,7.32a11.212,11.212,0,0,1,1.656-4.176,13.591,13.591,0,0,1-.144,1.92q-0.144,1.008-.384,2.04t-0.5,2.04q-0.264,1.008-.552,1.872A9.8,9.8,0,0,1,265.931,27.526Zm30.648,6.336a21.9,21.9,0,0,1-3.7,3.6,17.828,17.828,0,0,1-4.224,2.448,5.9,5.9,0,0,1-3.84.384,4.136,4.136,0,0,1-2.592-2.544q-0.912-2.063-.432-6.384a5.246,5.246,0,0,0,3.144.528,7.2,7.2,0,0,0,2.856-1.08A7.742,7.742,0,0,0,290,28.63a7.931,7.931,0,0,0,1.224-2.784,5.418,5.418,0,0,0-.144-2.856,4.8,4.8,0,0,0-1.848-2.424,6.368,6.368,0,0,0-4.536-1.224,8.266,8.266,0,0,0-4.488,1.944,10.736,10.736,0,0,0-2.76,3.864,16.959,16.959,0,0,0-1.368,5.16,16.707,16.707,0,0,0,.312,5.424,10.341,10.341,0,0,0,2.328,4.656,8.737,8.737,0,0,0,2.856,2.136,9.331,9.331,0,0,0,3.48.84,11.7,11.7,0,0,0,5.016-.96,20.043,20.043,0,0,0,4.752-2.832,24.97,24.97,0,0,0,4.008-4.008,19.169,19.169,0,0,0,2.736-4.536,1.11,1.11,0,0,0-.072-1.08,1.837,1.837,0,0,0-.84-0.672,1.669,1.669,0,0,0-1.08-.072,1.038,1.038,0,0,0-.744.768A12.674,12.674,0,0,1,296.579,33.862Zm-13.44-7.08a14.29,14.29,0,0,1,1.488-2.472,8.252,8.252,0,0,1,1.776-1.8,1.246,1.246,0,0,1,1.632-.072,2.351,2.351,0,0,1,.792,1.392,4.057,4.057,0,0,1-.072,1.8,5.594,5.594,0,0,1-.84,1.8,4.97,4.97,0,0,1-1.44,1.392,3.976,3.976,0,0,1-1.872.6,3.806,3.806,0,0,1-2.184-.6A7.662,7.662,0,0,1,283.139,26.782Zm29.952,0.48q-1.681-1.415-6.144-.024a7.705,7.705,0,0,1-1.68.264,5.325,5.325,0,0,1-1.872-.168,27.464,27.464,0,0,0,1.56-4.2,12.028,12.028,0,0,0,.456-2.9,2.342,2.342,0,0,0-.768-1.776,3.266,3.266,0,0,0-1.848-.864,3.818,3.818,0,0,0-2.184.384,4.136,4.136,0,0,0-1.824,1.872,8.545,8.545,0,0,0-.72,2.3,15.215,15.215,0,0,0-.264,3.12,12.3,12.3,0,0,0,.408,3.048,3.671,3.671,0,0,0,1.3,2.088,3.851,3.851,0,0,0,1.44.6,7.637,7.637,0,0,0,1.752.144q0.936-.024,1.944-0.144t1.968-.216a27.606,27.606,0,0,0-.624,3.672q-0.288,2.424-.36,5.28t0.1,5.832a29.883,29.883,0,0,0,.744,5.352,11.569,11.569,0,0,0,1.584,3.84,2.655,2.655,0,0,0,2.64,1.272,5.179,5.179,0,0,0,2.376-1.1,19.447,19.447,0,0,0,2.64-2.472,42.318,42.318,0,0,0,2.784-3.456q1.415-1.944,2.76-4.056t2.592-4.224q1.246-2.112,2.3-3.984T328,33.358q0.792-1.512,1.272-2.328A1.038,1.038,0,0,0,329.291,30a1.465,1.465,0,0,0-.792-0.648,2,2,0,0,0-1.1-.072,1.356,1.356,0,0,0-.912.7q-0.05.144-.768,1.44t-1.848,3.264q-1.13,1.969-2.52,4.368t-2.856,4.7q-1.465,2.3-2.832,4.272a30.541,30.541,0,0,1-2.376,3.072q-0.914,1.008-1.392.744a1.771,1.771,0,0,1-.624-1.392,14.268,14.268,0,0,1,0-2.88q0.144-1.752.408-3.72T312.3,39.91q0.36-1.968.648-3.48t0.48-2.352a1.8,1.8,0,0,1,.144-0.6Q314.77,28.679,313.091,27.262Z"/>
</svg>
